<svg width="558" height="662" viewBox="0 0 558 662" fill="none" xmlns="http://www.w3.org/2000/svg">
<path d="M424.962 253.751L383.93 267.508C423.514 267.508 437.499 291.847 438.639 304.546C439.779 317.245 444.338 346.875 383.93 389.204C323.522 431.533 206.143 454.209 165.093 456.931L0.965088 661.169C234.943 606.205 397.607 531.007 439.779 507.726C481.951 484.445 536.66 448.465 548.057 423.068C559.455 397.67 560.595 365.923 548.057 334.176C535.52 302.43 480.811 259.042 424.962 253.751Z" fill="#3BB56C"/>
<path d="M493.342 50.5705C472.826 34.6971 394.182 0.833724 329.214 0.833724C264.247 0.833724 207.258 -0.224458 135.453 50.5705C187.882 33.6389 211.818 23.0566 274.505 23.0566C337.193 23.0566 375.945 43.163 383.924 63.2693C391.902 83.3755 383.924 115.122 329.214 141.578C274.505 168.034 198.806 181.036 165.087 179.674L55.6682 334.176C332.755 281.09 486.503 205.072 513.858 152.16C541.213 99.249 513.858 66.4439 493.342 50.5705Z" fill="#DCE68F"/>
</svg>
